<?xml version="1.0" encoding="utf-8"?>
<!-- Generator: Adobe Illustrator 17.0.2, SVG Export Plug-In . SVG Version: 6.00 Build 0)  -->
<!DOCTYPE svg PUBLIC "-//W3C//DTD SVG 1.1//EN" "http://www.w3.org/Graphics/SVG/1.1/DTD/svg11.dtd">
<svg id="ninasvg" version="1.1" xmlns="http://www.w3.org/2000/svg" xmlns:xlink="http://www.w3.org/1999/xlink" x="0px" y="0px"
     width="100%" height="100%" viewBox="0 0 300 300" enable-background="new 0 0 300 300" xml:space="preserve">
<g id="nina-avatar">
    <circle id="nina-head" fill="none" stroke="white" stroke-width="10" stroke-miterlimit="10" cx="150" cy="150" r="100"/>
    <g id="nina-eyes" fill="white">
        <path id="nina-leftEye" d="M119.81,165.95c0,3.662-2.065,5.947-5.947,5.947h-33.48c-3.855,0-5.947-1.707-5.947-5.947v-20.925
        c3.414-21.916,16.217-45.374,38.436-57.764c-7.351,9.664-18.667,32.957-16.85,42.373c0,0,19.415,0,23.789,0V165.95z"/>
        <path id="nina-rightEye" d="M178.4,135.526c0-3.662,2.065-5.947,5.947-5.947h33.48c3.855,0,5.947,1.707,5.947,5.947v20.925
        c-3.414,21.916-16.217,45.374-38.436,57.764c7.351-9.664,18.667-32.957,16.85-42.373c0,0-19.415,0-23.789,0V135.526z"/>
    </g>
</g>
</svg>
