<svg viewBox="0 0 181.4 177.6">
	<path d="M21.2,153.6v-3.5c0-31.6,0-63.2,0-94.8c-0.2-2.1,0.9-4.1,2.7-5.1C45.2,36.5,66.4,22.6,87.6,8.7c1.7-1.4,4.2-1.4,5.9,0
		c21.3,14,42.7,27.9,64.1,41.7c1.6,1,2.5,2.8,2.3,4.6c0,31.7,0,63.3,0,95v3.5H171c5.8,0,5.8,0,5.8,5.9c0,2.7,0,5.4,0,8.2
		c0,3.6-0.6,4.2-4.1,4.2H9.2c-4.6,0-4.9-0.3-4.9-4.9v-9.4c0-3.3,0.7-4,3.9-4C12.5,153.6,16.7,153.6,21.2,153.6z M154.2,153.5
		c0.1-1,0.1-1.8,0.1-2.7c0-31.1,0-62.2,0.1-93.3c0.1-1.6-0.7-3.1-2.1-3.9c-20-13-40-26-59.8-39c-1.1-0.9-2.7-0.9-3.8,0
		C68.6,27.7,48.5,40.8,28.4,53.8c-1.2,0.7-1.9,2-1.7,3.3c0,31.3,0,62.6,0,93.8c0,0.8,0.1,1.7,0.1,2.4h50.9v-28.7c0-3.2,0.8-4,3.9-4
		c5.8,0,11.7,0,17.5,0c3.3,0,4.1,0.8,4.1,4.1c0,8.6,0,17.3,0,25.9c0,0.9,0.1,1.9,0.1,2.8L154.2,153.5z M9.7,159v4.1
		c0,3.3,0,3.3,3.2,3.3h158.3V159H9.7z M97.8,153.5v-27.2H83.4v27.2H97.8z"/>
	<path d="M50.6,99c2.8,0,5.6,0,8.4,0c1.9,0,3.2,0.8,3.2,2.7s-1.4,2.8-3.2,2.8c-5.5,0-11,0-16.5,0c-1.9,0-3.4-0.8-3.3-2.9
		c0.1-1.9,1.5-2.6,3.4-2.6C45.2,99.1,47.9,99,50.6,99z"/>
	<path d="M90.7,99h8.4c1.8,0,3,0.8,3.1,2.6s-1.2,2.8-2.9,2.8c-5.8,0.1-11.5,0.1-17.3,0c-1.7,0-2.9-0.9-2.9-2.8s1.2-2.7,3-2.7
		L90.7,99z"/>
	<path d="M130.5,104.5c-2.6,0-5.3,0-7.9,0s-3.7-0.9-3.6-2.8c0.1-2.3,1.6-2.7,3.5-2.6c5.3,0,10.7,0,16,0c1.9,0,3.4,0.4,3.5,2.7
		s-1.5,2.8-3.4,2.8C135.9,104.6,133.2,104.5,130.5,104.5z"/>
	<path d="M50.9,72.2c-2.9,0-5.8,0-8.6,0c-1.8,0-3.1-0.7-3.1-2.5c-0.1-1.8,1.2-2.9,3.1-2.9c5.7,0,11.3,0,17,0c1.7,0,3,0.8,3,2.7
		c0,2-1.3,2.7-3.2,2.7C56.3,72.1,53.6,72.2,50.9,72.2z"/>
	<path d="M130.3,72.2c-2.7,0-5.4,0-8.1,0c-1.8,0-3.2-0.6-3.1-2.7c0-1.9,1.3-2.7,3-2.7c5.7,0,11.3,0,17,0c1.9,0,3.1,0.9,3,2.9
		s-1.4,2.5-3.1,2.5C136,72.2,133.1,72.2,130.3,72.2z"/>
	<path d="M90.4,72.2c-2.8,0-5.6,0-8.4,0c-1.8,0-3-0.7-3-2.6c0-1.9,1.2-2.7,2.9-2.8c5.8,0,11.5,0,17.2,0c1.4-0.2,2.7,0.9,2.9,2.3
		c0,0.2,0,0.3,0,0.5c0,1.8-1.3,2.6-3.1,2.6C96.2,72.2,93.3,72.2,90.4,72.2z"/>
</svg>
