<svg viewBox="0 0 173.5 177.6">
	<path d="M88.4,70.1c3.8,0,7.5,1.2,10.5,3.5c10.7,7.4,18.3,17.3,24.5,28.5c0.8,1.4,1.5,2.8,2.1,4.3c0.9,2.2,0.4,4.1-1.4,5
		s-3.8,0.2-4.9-2c-4.2-8.9-9.9-17-17-23.9c-2.7-2.5-5.6-4.8-8.7-6.8c-4.3-2.7-9.1-2-13.3,1.4c-4,3.2-5.8,8.2-4.3,12.3
		c0.6,1.6,1.6,3.1,2.8,4.3c7.5,7.1,14.4,14.5,19,23.9c7.2,14.8,7.5,30.2,3.8,45.9c-0.3,1.9-2,3.2-3.8,2.9c-0.2,0-0.3-0.1-0.5-0.1
		c-2-0.5-2.9-2.3-2.4-4.7c2.9-12.4,2.9-24.7-1.8-36.8c-3.9-9.9-10.3-18.1-18.3-24.9C69.2,98.1,67.1,90,69.8,83
		C72.9,75.3,80.2,70.2,88.4,70.1z"/>
	<path d="M90,25.3c13.7-0.1,27.8,5.9,40.6,15.6c16.1,12.2,27.6,28,35.8,46.4c0.5,0.9,0.7,2,0.6,3c-0.2,1.6-1.5,2.8-3.1,2.8
		c-2,0.2-3-1-3.8-2.7c-4.4-10-10.2-19.4-17.2-27.8c-8.3-10.1-18-18.4-29.7-24.2c-15.8-7.8-31.9-8.1-48.3-1.7
		c-3.5,1.5-5.4,1.1-6.3-1.2s0.3-3.8,3.6-5.2C70.3,26.9,78.7,25.3,90,25.3z"/>
	<path d="M85,39.8c9.5,0.2,17.5,1.7,25.1,5.4c1.2,0.5,2.2,1.5,2.8,2.6c0.3,1-0.1,3.1-0.9,3.5c-1.3,0.7-2.9,0.8-4.3,0.3
		c-7.5-3.6-15.7-5.2-24-4.7c-16.8,1.1-28.1,10.2-34.9,25.2c-6.2,13.9-4.3,27.3,3.7,39.9c0.5,0.9,1.2,1.7,1.7,2.6
		c1.1,1.8,0.9,3.8-0.7,4.9c-1.5,1.1-3.7,0.8-4.8-0.7c-0.1-0.1-0.1-0.2-0.2-0.3c-3.7-5.1-6.6-10.8-8.5-16.8
		c-7.9-24.7,9.3-57,37.8-61.3C80.6,40.1,83.4,40,85,39.8z"/>
	<path d="M84.7,54.1c12.1,0.4,20.8,4.2,28.2,10.9c15.8,14.2,26.1,32,32.1,52.2c2,6.9,3.2,14,4.5,21c0.1,1.3-0.5,2.6-1.4,3.4
		c-1.1,0.6-2.4,0.6-3.5,0.1c-1-0.8-1.6-1.9-1.8-3.1c-2.1-15.8-7.3-31-15.3-44.8c-5.5-9.3-12-17.8-20.4-24.6
		c-6.8-5.6-14.4-8.8-23.4-7.8c-2.1,0.3-4.2,0.9-6.2,1.6c-2.7,0.8-4.5,0.3-5.2-1.7s0.1-3.9,2.8-4.7C78.8,55.4,82.7,54.6,84.7,54.1z"
		/>
	<path d="M82.1,152.2c-0.1-16.9-5.8-29.1-17-38.7c-13.2-11.4-13.8-31.3-6-43.5c0.4-0.8,1-1.5,1.6-2.1c1.2-1.2,3.2-1.2,4.4,0
		c1.7,1.4,1.7,3.2,0.4,4.9C62,78,60.4,84.3,61.1,90.6c0.6,6.3,2.7,11.9,7.4,16.4c5.9,5.7,11.9,11.4,15.3,19.2
		c5.6,12.8,7.1,25.9,2.8,39.4c-0.2,0.8-0.5,1.5-0.9,2.2c-0.8,1.7-2.8,2.5-4.6,1.8c-1.7-0.8-2.5-2.8-1.8-4.6
		C81.1,161,82,156.6,82.1,152.2z"/>
	<path d="M91.9,13.5c0,2.1-1.3,3.3-3.8,3.3c-9,0.1-17.8,1.8-26.2,4.9C43,29.1,29.1,41.8,20.5,60.2c-0.7,1.5-1.4,3.1-3.4,3.3
		c-3,0.3-4.9-2.5-3.3-5.4c3.4-6,6.5-12.4,10.8-17.7c16.1-19.9,37.3-29.8,62.9-30.4C90.5,10.1,91.9,11.2,91.9,13.5z"/>
	<path d="M119.2,150.4c-0.2,3.6-0.3,6.8-0.5,10c-0.2,2.3-1.4,3.4-3.5,3.4s-3.1-1.3-3.2-3.6c-0.3-7.8-0.1-15.7-1-23.4
		c-2.2-18.1-9.9-33.2-24.8-44.3c-3-2.3-3.7-4.2-2.1-6.1s3.4-1.6,6.5,0.7c17,12.8,25.2,30.3,27.7,51
		C118.7,142.1,118.9,146.4,119.2,150.4z"/>
	<path d="M124.7,57.3c1,0.5,2,1,2.8,1.7c16.1,16.9,27.9,36.3,33,59.3c0.6,2.7-0.3,4.5-2.3,5s-3.8-0.8-4.4-3.5
		c-4.7-20.9-15.3-38.6-29.6-54.2c-0.7-0.8-1.7-1.4-2-2.3c-0.5-1.2-0.5-2.5-0.2-3.8C122.3,58.6,123.7,58.1,124.7,57.3z"/>
	<path d="M59.8,150.8c-1.4,3.4-2.7,6.9-4.4,10.2c-0.9,1.8-2.8,2.2-4.6,1.1c-1.6-0.8-2.2-2.8-1.4-4.4c0-0.1,0.1-0.1,0.1-0.2
		c0-0.1,0.1-0.2,0.1-0.2c4.4-6.3,2.2-11.8-2.2-16.9c-4.1-4.7-8.5-9.1-12.5-13.9c-5.3-6.3-9-13.9-10.6-22c-0.1-0.6-0.2-1.3-0.2-1.9
		c-0.2-1.6,0.9-3.1,2.6-3.4c0,0,0.1,0,0.1,0c1.9-0.3,3.6,0.4,3.9,2.3c2.2,13.2,10.6,22.6,19.6,31.6c4.1,4.1,7.4,8.8,8.6,14.7
		c0.2,0.9,0.3,1.7,0.4,2.6L59.8,150.8z"/>
	<path d="M108.5,12.4c2.4,0.8,5.7,1.7,8.9,2.9c14.2,5.2,26.6,14.4,35.8,26.4c2.2,2.9,2.4,4.8,0.6,6.3s-3.9,0.8-6.1-2
		c-9.9-12.9-23.8-22.2-39.6-26.4c-0.6-0.1-1.2-0.3-1.8-0.5c-1.7-0.5-2.8-2.2-2.4-4C104.2,13.3,105.7,12.3,108.5,12.4z"/>
	<path d="M6.5,89.8c1.1-6.9,2.2-13.8,3.4-20.7c0.4-2.1,1.4-3.6,3.9-3.4c2.4,0.2,3.6,2.1,2.9,4.9c-2,7.1-2.8,14.4-2.6,21.8
		c0.3,7.4,1.7,14.8,4.2,21.8c0.4,1.4,0.3,2.9-0.4,4.2c-1.5,2.3-4.9,1.4-5.9-1.4c-2.5-6.6-4-13.5-4.5-20.5c-0.2-2.2,0-4.3,0-6.5
		L6.5,89.8z"/>
	<path d="M23.3,82.8c1.5-12.4,6.3-24.1,14.1-33.8c2.2-2.6,4.5-5.1,7-7.5c1.7-1.7,4-1.7,5.3-0.3c1.3,1.4,1.2,3.7-0.7,5.4
		C38.7,56.2,32.1,69,30.3,82.9c-0.4,2.7-1.9,4.1-4,3.8C24.4,86.5,23.1,84.8,23.3,82.8z"/>
	<path d="M73.8,149.1c0,5-1.1,9.9-3.1,14.4c-1.2,2.6-3,3.5-5.1,2.5s-2.4-2.7-1.3-5.3c4.6-11.3,3.5-21.5-5.5-30.4
		c-1.8-1.8-1.9-3.8-0.5-5.3s3.5-1.5,5.3,0.3C70.3,131.4,74,140.1,73.8,149.1z"/>
	<path d="M22.4,126.1c1.2,1,2.4,1.6,3,2.5c4.6,7,10.3,13.2,16.9,18.4c1.9,1.5,2.2,3.6,0.9,5.2s-3.3,1.7-5.3,0.2
		c-7.2-5.5-13.4-12.4-18.2-20.1c-0.6-1.3-0.7-2.7-0.2-4C19.7,127.4,21.1,126.9,22.4,126.1z"/>
	<path d="M134.6,145.4c0,2.2,0.1,4.5,0,6.7c0,1.9-1.5,3.4-3.4,3.4c-1.9,0-3.4-1.5-3.4-3.4c0-0.1,0-0.3,0-0.4
		c0.4-8.6-0.3-17.3-2.3-25.7c-0.5-2.3,0.5-4,2.5-4.5c1.8-0.5,3.7,0.6,4.1,2.4c0,0.2,0.1,0.3,0.1,0.5c1.2,6.9,2.2,13.8,3.3,20.8
		L134.6,145.4z"/>
</svg>
