<svg xmlns="http://www.w3.org/2000/svg" viewBox="0 0 250 178">
  <path d="M125,123.22a87.18,87.18,0,0,1-21.47,17,65.29,65.29,0,0,1-38,8.07c-9.07-.79-17.76-2.81-25.8-7.18C26.67,134,18.44,123,14.48,108.9c-4.16-14.81-4-29.68,1.32-44.2,6.52-18,19.48-29,37.94-33.48,24.47-5.92,45.93.27,64.64,16.78,2.3,2,4.45,4.22,6.69,6.35,2.73-2.53,5.38-5.21,8.25-7.64,9.87-8.36,20.93-14.59,33.83-16.59,18-2.78,35.1-.32,50.12,10.82,10.1,7.5,16.09,17.84,19,30,3.44,14.17,3.1,28.28-1.9,42-6.62,18.14-19.74,29.2-38.42,33.59-23.78,5.59-44.78-.23-63.19-16-1.36-1.16-2.65-2.39-4-3.6S126.34,124.52,125,123.22ZM158,90.44c3,3.08,5.83,6.17,8.85,9.07a21,21,0,0,0,4.48,3.15,14.19,14.19,0,0,0,17.73-3.19c4.14-5.11,4-13.79-.25-18.76-4.52-5.25-12.49-6.15-18.82-2.11C165.28,81.6,161.85,85.91,158,90.44Zm-66.08-.09c-2.42-3.87-8.53-9.9-12.3-12.09a14.53,14.53,0,0,0-9.58-2.07A13.08,13.08,0,0,0,58.67,86c-1.62,5.93.2,12.14,4.53,15.53,5.16,4,12.43,3.86,18.29-.47C85.56,98,88.77,94.2,91.93,90.35Z"/>
</svg>
