<svg xmlns="http://www.w3.org/2000/svg" viewBox="0 0 245.99 157.79">
  <path d="M68.16,24.32c5.9,5.4,13,7,20.4,8,2.9.4,4.6-.1,6.6-2.5,1.8-2.2,4.8-3.7,7.6-4.6,8-2.8,16.4-3,24.8-3.7,13-1.1,25.5,1.2,37.9,4.3,4.4,1.1,8.7,1.3,13.1-.6-.6-1.1-1.1-2.1-1.7-3.2-2.5-4.6-1.4-8.8,2.9-11.5l14.7-9c4.6-2.8,8.9-1.7,11.5,3q17.85,31.5,35.5,63c1.2,2.1,2.4,4.2,3.5,6.3a7.75,7.75,0,0,1-2.7,10.5c-5.3,3.3-10.6,6.6-16,9.7-3.9,2.3-8.2,1.1-10.6-2.8-.9-1.6-1.8-3.2-2.8-4.8L200.16,98c3.8,11.4-1.1,18.6-14.2,20.3-3.6,10.3-5.2,11.8-15.2,13.4l-.6,2.2c-1.8,6.8-5.9,10.3-13,10.6a5.62,5.62,0,0,0-4.7,2.5c-6.3,8.3-14.8,9.6-24.3,7.5-5-1.1-10-2.6-15.1-3.9-6.9,11.7-21.2,7.9-25.5-3-10.6.1-14.2-2.1-17.9-10.9-11.5-1.2-15.6-4.9-16.9-15.5-13.1-5.1-16.6-13.3-9.9-24l-9.4-11.4c-1.1,1.9-2,3.5-3,5.1-2.6,4.4-6.9,5.6-11.2,3-5-3-10-6-14.9-9.1-4.4-2.7-5.6-6.9-3-11.5,10.1-18,20.2-36.1,30.4-54.1,2.8-4.9,5.5-9.8,8.3-14.6s7-5.8,11.5-3c4.8,2.9,9.6,5.8,14.3,8.7,4.9,3,6,7.1,3.2,12.2C68.76,23,68.46,23.72,68.16,24.32Zm78,118c-.8-.4-1.4-.8-2.1-1.1-6.6-3.2-13.3-6.3-19.8-9.7a5.65,5.65,0,0,1-2.7-3.5c-.6-3.3,2.8-5.1,6.1-3.5,7.8,3.7,15.5,7.5,23.3,11.3a11.63,11.63,0,0,0,8.2.6c2.5-.7,3.1-3,3.7-5.2s-1.4-2.3-2.5-2.9c-8.5-5-17.1-10-25.7-14.9-2-1.1-3.4-2.5-2.7-5,.8-2.8,3.5-3.6,6.4-1.9,9.2,5.3,18.4,10.6,27.6,16,2.9,1.7,5.7,1.4,8.5.5,2.5-.9,3.2-3.1,3.6-5.5s-1.3-2.8-2.7-3.7c-10.2-6.1-20.4-12.2-30.6-18.4-2.5-1.5-3.2-3.7-2-5.8s3.5-2.4,6.1-.9c1.2.7,2.3,1.4,3.5,2.1,10.3,6.1,20.5,12.3,30.8,18.5a7.1,7.1,0,0,0,8.8-.9,5.85,5.85,0,0,0,.5-7.9,19.21,19.21,0,0,0-2.9-2.8c-20.5-16.8-42.2-31.9-66-43.8-2.8-1.4-8.5-.1-10.5,2.5a44.49,44.49,0,0,1-14.6,13,26.69,26.69,0,0,1-15.9,3.3c-4.8-.6-7.4-3.7-7.5-8.4-.2-5.4,2.6-9.6,5.3-13.8,2.2-3.5,4.6-6.8,7.2-10.7-8.8-.6-16.5-3-23.3-8.6l-26.7,47.3,10.3,12.3c7.3-6.3,14.1-5.1,22.1,3.9,3.5-5.9,8.5-8.7,15.3-6.7,7.1,2.1,10.4,7.5,10.9,14.7,7.9,1.8,13.5,7.3,13,17.4,5.2,1.2,9.1,4.1,11.2,9.1s1.4,10-2.3,14.5c6.1,1.8,11.8,3.6,17.8,3.8,4.2.1,7.5-1.7,10.3-5.2ZM82.26,65a54.9,54.9,0,0,0,5.8-.3,25.14,25.14,0,0,0,16.3-10.6c3.6-5.1,8.2-7.5,13.8-8.8a1.85,1.85,0,0,0,.7-.2,6.07,6.07,0,0,1,5.7.5c24.6,12.2,47.1,27.5,68.4,44.9,1.2,1,2.1,1.1,3.1.2,4.4-3.7,8.7-7.4,13.1-11.1-9-16.1-17.8-31.7-26.8-47.5-7.9,3.6-15.6,2.3-23.4.3-9.2-2.4-18.6-4.1-28.2-3.2-8.5.8-16.9,1.9-25.4,3.1a6.92,6.92,0,0,0-4.4,2.4c-5.8,8.1-11.4,16.4-17,24.7C83.16,60.82,83,62.82,82.26,65ZM47.16,8c-13.1,23.3-26.1,46.4-39.2,69.6l15.6,9.7c13.1-23.3,26.1-46.4,39.2-69.6Zm136.2,9.5c13.1,23.3,26.1,46.5,39.2,69.7l15.7-9.6L199,8ZM68.06,128.92a28.32,28.32,0,0,0,2.8-2,19.52,19.52,0,0,0,1.7-2.3c4.8-6.4,9.6-12.7,14.4-19.1,2.1-2.8,1.4-6.6-1.8-9-2.8-2.1-5.5-1.7-7.8,1.4-5.1,6.9-10.1,13.8-15.2,20.6a5.61,5.61,0,0,0-.6,6.3C62.66,127,64.56,128.52,68.06,128.92Zm16.5,11a7.93,7.93,0,0,0,2.5-1.5q6.9-9,13.5-18.3c1.8-2.5.4-6.3-2.5-8.3s-5.3-1.5-7.4,1.3c-4.1,5.5-8.1,11.1-12.2,16.6A5.43,5.43,0,0,0,78,136a7,7,0,0,0,6.6,3.9Zm29-4.6c0-3.8-2.6-7.3-5.7-7.5a5.48,5.48,0,0,0-4.2,1.5c-2.9,3.5-5.6,7.2-8.2,10.9-1.7,2.5-.4,6.4,2.4,8.3s5.3,1.6,7.4-1.3c2.3-3.1,4.7-6.3,7-9.4a7.45,7.45,0,0,0,1.3-2.5Zm-50.1-33.1a7.24,7.24,0,0,0-5-7.3c-2.4-.8-3.9-.1-6,2.7a42.91,42.91,0,0,1-3.6,4.8c-3.2,3.3-.9,8.5,2.7,10.2,2.3,1,4.4.7,5.8-1.2,1.8-2.3,3.6-4.7,5.2-7.2A4,4,0,0,0,63.46,102.22Z"/>
</svg>
