<svg xmlns="http://www.w3.org/2000/svg" viewBox="0 0 275.8 177.6">
  <path d="M261.2,54.4c7.2,0,11.2,4,11.2,11.1v46.4c0,7.7-3.9,11.5-11.5,11.5H113.8c.4,1.6.7,3,1,4.4.5,2.8,1.6,5.6,1.3,8.4-1,10.1-12.1,15.1-21.1,9.8Q52.4,121.1,9.9,96.3c-6.8-4-6.8-10.9,0-14.9Q35,66.7,60,52.1c11.7-6.8,23.4-13.7,35.2-20.5,5.4-3.1,10.9-2.8,15.8.8s6.2,8.5,4.6,14.3c-.7,2.4-1.1,4.8-1.8,7.7ZM106.5,45.7c.5-2.2,1.3-4.3-1-5.9s-4.5-.9-6.7.4l-78,45.6-5.2,3c.8.6,1.5,1,2.1,1.4l81.1,47.4a10.93,10.93,0,0,0,1.5.8,4.85,4.85,0,0,0,5.4-.6c1.6-1.3,1.4-2.9,1-4.6-1.3-5.4-2.6-10.9-3.9-16.3-.2-.8-.4-1.5-.6-2.7H259.4c3.8,0,3.8,0,3.8-3.8V67c0-3.5,0-3.5-3.6-3.5H102.2C103.6,57.2,105,51.4,106.5,45.7Z"/>
</svg>
