<svg viewBox="0 0 258 177.6">
<path d="M75.1,34.3c5.9,5.4,13,7,20.4,8c2.9,0.4,4.6-0.1,6.6-2.5c1.8-2.2,4.8-3.7,7.6-4.6c8-2.8,16.4-3,24.8-3.7
	c13-1.1,25.5,1.2,37.9,4.3c4.4,1.1,8.7,1.3,13.1-0.6c-0.6-1.1-1.1-2.1-1.7-3.2c-2.5-4.6-1.4-8.8,2.9-11.5c4.9-3,9.8-6,14.7-9
	c4.6-2.8,8.9-1.7,11.5,3c11.9,21,23.7,42,35.5,63c1.2,2.1,2.4,4.2,3.5,6.3c2.1,3.7,0.9,8.3-2.7,10.5c-5.3,3.3-10.6,6.6-16,9.7
	c-3.9,2.3-8.2,1.1-10.6-2.8c-0.9-1.6-1.8-3.2-2.8-4.8L207.1,108c3.8,11.4-1.1,18.6-14.2,20.3c-3.6,10.3-5.2,11.8-15.2,13.4l-0.6,2.2
	c-1.8,6.8-5.9,10.3-13,10.6c-1.9,0-3.6,0.9-4.7,2.5c-6.3,8.3-14.8,9.6-24.3,7.5c-5-1.1-10-2.6-15.1-3.9c-6.9,11.7-21.2,7.9-25.5-3
	c-10.6,0.1-14.2-2.1-17.9-10.9c-11.5-1.2-15.6-4.9-16.9-15.5c-13.1-5.1-16.6-13.3-9.9-24l-9.4-11.4c-1.1,1.9-2,3.5-3,5.1
	c-2.6,4.4-6.9,5.6-11.2,3c-5-3-10-6-14.9-9.1c-4.4-2.7-5.6-6.9-3-11.5c10.1-18,20.2-36.1,30.4-54.1c2.8-4.9,5.5-9.8,8.3-14.6
	c2.7-4.7,7-5.8,11.5-3c4.8,2.9,9.6,5.8,14.3,8.7c4.9,3,6,7.1,3.2,12.2C75.7,33,75.4,33.7,75.1,34.3z M153.1,152.3
	c-0.8-0.4-1.4-0.8-2.1-1.1c-6.6-3.2-13.3-6.3-19.8-9.7c-1.3-0.7-2.3-2-2.7-3.5c-0.6-3.3,2.8-5.1,6.1-3.5c7.8,3.7,15.5,7.5,23.3,11.3
	c2.6,1.2,5.5,1.4,8.2,0.6c2.5-0.7,3.1-3,3.7-5.2s-1.4-2.3-2.5-2.9c-8.5-5-17.1-10-25.7-14.9c-2-1.1-3.4-2.5-2.7-5
	c0.8-2.8,3.5-3.6,6.4-1.9c9.2,5.3,18.4,10.6,27.6,16c2.9,1.7,5.7,1.4,8.5,0.5c2.5-0.9,3.2-3.1,3.6-5.5c0.4-2.4-1.3-2.8-2.7-3.7
	c-10.2-6.1-20.4-12.2-30.6-18.4c-2.5-1.5-3.2-3.7-2-5.8s3.5-2.4,6.1-0.9c1.2,0.7,2.3,1.4,3.5,2.1c10.3,6.1,20.5,12.3,30.8,18.5
	c2.8,1.8,6.4,1.4,8.8-0.9c2.2-2.1,2.4-5.5,0.5-7.9c-0.9-1-1.8-2-2.9-2.8c-20.5-16.8-42.2-31.9-66-43.8c-2.8-1.4-8.5-0.1-10.5,2.5
	c-3.8,5.3-8.8,9.8-14.6,13c-4.8,2.7-10.4,3.9-15.9,3.3c-4.8-0.6-7.4-3.7-7.5-8.4c-0.2-5.4,2.6-9.6,5.3-13.8
	c2.2-3.5,4.6-6.8,7.2-10.7c-8.8-0.6-16.5-3-23.3-8.6L44.5,88.5l10.3,12.3c7.3-6.3,14.1-5.1,22.1,3.9c3.5-5.9,8.5-8.7,15.3-6.7
	c7.1,2.1,10.4,7.5,10.9,14.7c7.9,1.8,13.5,7.3,13,17.4c5.2,1.2,9.1,4.1,11.2,9.1c2.1,5,1.4,10-2.3,14.5c6.1,1.8,11.8,3.6,17.8,3.8
	C147,157.6,150.3,155.8,153.1,152.3L153.1,152.3z M89.2,75c2,0,3.9-0.1,5.8-0.3c6.6-1.2,12.5-5,16.3-10.6c3.6-5.1,8.2-7.5,13.8-8.8
	c0.2,0,0.5-0.1,0.7-0.2c1.9-0.8,4-0.6,5.7,0.5c24.6,12.2,47.1,27.5,68.4,44.9c1.2,1,2.1,1.1,3.1,0.2c4.4-3.7,8.7-7.4,13.1-11.1
	c-9-16.1-17.8-31.7-26.8-47.5c-7.9,3.6-15.6,2.3-23.4,0.3c-9.2-2.4-18.6-4.1-28.2-3.2c-8.5,0.8-16.9,1.9-25.4,3.1
	c-1.7,0.2-3.3,1.1-4.4,2.4c-5.8,8.1-11.4,16.4-17,24.7C90.1,70.8,89.9,72.8,89.2,75z M54.1,18C41,41.3,28,64.4,14.9,87.6l15.6,9.7
	c13.1-23.3,26.1-46.4,39.2-69.6L54.1,18z M190.3,27.5c13.1,23.3,26.1,46.5,39.2,69.7l15.7-9.6L205.9,18L190.3,27.5z M75,138.9
	c1-0.6,1.9-1.3,2.8-2c0.6-0.7,1.2-1.5,1.7-2.3c4.8-6.4,9.6-12.7,14.4-19.1c2.1-2.8,1.4-6.6-1.8-9c-2.8-2.1-5.5-1.7-7.8,1.4
	c-5.1,6.9-10.1,13.8-15.2,20.6c-1.5,1.8-1.7,4.3-0.6,6.3C69.6,137,71.5,138.5,75,138.9z M91.5,149.9c0.9-0.3,1.8-0.9,2.5-1.5
	c4.6-6,9.1-12.1,13.5-18.3c1.8-2.5,0.4-6.3-2.5-8.3s-5.3-1.5-7.4,1.3c-4.1,5.5-8.1,11.1-12.2,16.6c-1.5,1.8-1.7,4.3-0.5,6.3
	C86.1,148.5,88.7,150,91.5,149.9L91.5,149.9z M120.5,145.3c0-3.8-2.6-7.3-5.7-7.5c-1.5-0.1-3.1,0.4-4.2,1.5
	c-2.9,3.5-5.6,7.2-8.2,10.9c-1.7,2.5-0.4,6.4,2.4,8.3s5.3,1.6,7.4-1.3c2.3-3.1,4.7-6.3,7-9.4C119.8,147.1,120.2,146.2,120.5,145.3
	L120.5,145.3z M70.4,112.2c0.2-3.3-1.9-6.3-5-7.3c-2.4-0.8-3.9-0.1-6,2.7c-1.1,1.7-2.3,3.3-3.6,4.8c-3.2,3.3-0.9,8.5,2.7,10.2
	c2.3,1,4.4,0.7,5.8-1.2c1.8-2.3,3.6-4.7,5.2-7.2C70,113.6,70.3,112.9,70.4,112.2z"/>
</svg>
