<svg xmlns="http://www.w3.org/2000/svg" viewBox="0 0 250 178">
  <path d="M72.07,120.06h37.35c.51,2.14.89,4.28,1.53,6.33,2.37,7.52,7.3,11,14.91,10.74,6.8-.27,11.71-4.38,13.26-11.68a51.33,51.33,0,0,0-.24-23.13c-1.75-7.14-5.86-10.77-12.38-11.26q-11.58-.87-15.91,9.23l-1.06,2.48H75.34V7.28H174V40.87H109.4v24c4.58-1.49,9.19-3.65,14-4.45,24.22-4,45.36,7.44,51.91,32.93a80.77,80.77,0,0,1-.39,43.35c-5.3,17.84-18,28.7-36.14,32.65-15.74,3.44-31,1.71-45-6.83-11.11-6.79-17.46-17-19.93-29.66C73.08,128.73,72.69,124.54,72.07,120.06Z"/>
</svg>
