<svg xmlns="http://www.w3.org/2000/svg" viewBox="0 0 121.17 187.12">
  <path d="M0,128.9H42.68c.59,2.45,1,4.88,1.76,7.23,2.7,8.6,8.34,12.62,17,12.28,7.77-.31,13.39-5,15.16-13.35a58.87,58.87,0,0,0-.27-26.44c-2-8.16-6.7-12.31-14.16-12.87Q49,94.76,44,106.3c-.4.91-.79,1.82-1.22,2.83H3.74V0H116.48V38.39H42.67V65.81c5.23-1.7,10.49-4.17,16-5.09,27.67-4.58,51.84,8.5,59.32,37.64,4.21,16.37,4.37,33.33-.44,49.55C111.5,168.3,97,180.71,76.25,185.22c-18,3.93-35.42,2-51.4-7.81-12.7-7.76-20-19.43-22.78-33.9C1.15,138.81.71,134,0,128.9Z"/>
</svg>
