<svg xmlns="http://www.w3.org/2000/svg" viewBox="0 0 267.56 118.57">
  <path d="M256.39,24.88c7.17,0,11.17,4,11.17,11.12V82.28c0,7.72-3.85,11.51-11.49,11.51H109c.38,1.66.75,3,1,4.43.5,2.81,1.56,5.7,1.29,8.45-1,10-12.09,15-21.09,9.77Q47.61,91.63,5.1,66.77c-6.8-4-6.79-10.88,0-14.88Q30.18,37.27,55.19,22.63C66.92,15.78,78.56,8.87,90.39,2.1a13.78,13.78,0,0,1,15.78.81c4.84,3.56,6.2,8.47,4.58,14.27-.66,2.37-1.13,4.8-1.79,7.66ZM101.62,16.1c.48-2.11,1.32-4.24-1-5.85s-4.45-.92-6.69.39l-78,45.6-5.2,3c.9.6,1.5,1,2.15,1.43L94,108a15,15,0,0,0,1.47.82,5,5,0,0,0,5.41-.63c1.6-1.25,1.41-2.88,1-4.57q-2-8.14-3.91-16.31c-.18-.77-.34-1.54-.58-2.69H254.57c3.83,0,3.83,0,3.83-3.76V37.5c0-3.5,0-3.5-3.61-3.5H97.35C98.84,27.7,100.2,21.88,101.62,16.1Z"/>
</svg>
