<svg xmlns="http://www.w3.org/2000/svg" viewBox="0 0 345.57 182">
  <path d="M172.6,143.4a132.58,132.58,0,0,1-32.68,25.83,99.42,99.42,0,0,1-57.83,12.29c-13.8-1.2-27-4.29-39.27-10.93-19.85-10.78-32.37-27.5-38.41-49-6.33-22.55-6-45.19,2-67.3C16.35,27,36.08,10.14,64.18,3.34c37.26-9,69.93.41,98.41,25.54,3.5,3.09,6.78,6.43,10.18,9.68,4.15-3.86,8.19-7.93,12.55-11.63,15-12.74,31.87-22.22,51.51-25.26,27.4-4.23,53.44-.48,76.3,16.48,15.38,11.41,24.5,27.15,29,45.59,5.24,21.57,4.73,43-2.89,64-10.07,27.63-30.05,44.46-58.48,51.14-36.21,8.51-68.18-.35-96.21-24.39-2.06-1.77-4-3.63-6-5.47S174.7,145.38,172.6,143.4Zm50.31-49.91c4.54,4.7,8.87,9.4,13.47,13.82a31.92,31.92,0,0,0,6.82,4.78c9.15,5.06,20.73,2.91,27-4.85s6.11-21-.4-28.55c-6.87-8-19-9.37-28.64-3.22C234,80,228.76,86.6,222.91,93.49Zm-100.59-.14c-3.68-5.87-13-15.07-18.72-18.4A22.17,22.17,0,0,0,89,71.81C80.27,73,74,78.37,71.69,86.73c-2.46,9,.29,18.47,6.89,23.63,7.86,6.15,18.93,5.88,27.85-.72C112.62,105.07,117.51,99.23,122.32,93.35Z"/>
</svg>
