<svg xmlns="http://www.w3.org/2000/svg" viewBox="0 0 172.5 164.15">
  <path d="M16.9,146V47.65a5.29,5.29,0,0,1,2.7-5.1C40.9,28.85,62.1,15,83.3,1.05a4.67,4.67,0,0,1,5.9,0q32,21,64.1,41.7a4.85,4.85,0,0,1,2.3,4.6v98.5h11.1c5.8,0,5.8,0,5.8,5.9V160c0,3.6-.6,4.2-4.1,4.2H4.9c-4.6,0-4.9-.3-4.9-4.9v-9.4c0-3.3.7-4,3.9-4C8.2,146,12.4,146,16.9,146Zm133-.1a25.28,25.28,0,0,0,.1-2.7q0-46.65.1-93.3A4.17,4.17,0,0,0,148,46C128,33,108,20,88.2,7a3,3,0,0,0-3.8,0Q54.25,26.6,24.1,46.15a3.31,3.31,0,0,0-1.7,3.3v93.8c0,.8.1,1.7.1,2.4H73.4V117c0-3.2.8-4,3.9-4H94.8c3.3,0,4.1.8,4.1,4.1V143c0,.9.1,1.9.1,2.8ZM5.4,151.35v4.1c0,3.3,0,3.3,3.2,3.3H166.9v-7.4Zm88.1-5.5v-27.2H79.1v27.2Z"/>
  <path d="M46.3,91.35h8.4c1.9,0,3.2.8,3.2,2.7s-1.4,2.8-3.2,2.8H38.2c-1.9,0-3.4-.8-3.3-2.9.1-1.9,1.5-2.6,3.4-2.6C40.9,91.45,43.6,91.35,46.3,91.35Z"/>
  <path d="M86.4,91.35h8.4c1.8,0,3,.8,3.1,2.6a2.61,2.61,0,0,1-2.9,2.8c-5.8.1-11.5.1-17.3,0A2.6,2.6,0,0,1,74.8,94c0-1.9,1.2-2.7,3-2.7Z"/>
  <path d="M126.2,96.85h-7.9c-2.6,0-3.7-.9-3.6-2.8.1-2.3,1.6-2.7,3.5-2.6h16c1.9,0,3.4.4,3.5,2.7s-1.5,2.8-3.4,2.8C131.6,97,128.9,96.85,126.2,96.85Z"/>
  <path d="M46.6,64.55H38c-1.8,0-3.1-.7-3.1-2.5s1.2-2.9,3.1-2.9H55c1.7,0,3,.8,3,2.7s-1.3,2.7-3.2,2.7C52,64.45,49.3,64.55,46.6,64.55Z"/>
  <path d="M126,64.55h-8.1c-1.8,0-3.2-.6-3.1-2.7,0-1.9,1.3-2.7,3-2.7h17c1.9,0,3.1.9,3,2.9s-1.4,2.5-3.1,2.5Z"/>
  <path d="M86.1,64.55H77.7c-1.8,0-3-.7-3-2.6s1.2-2.7,2.9-2.8H94.8a2.66,2.66,0,0,1,2.9,2.3V62c0,1.8-1.3,2.6-3.1,2.6Z"/>
</svg>
