<svg xmlns="http://www.w3.org/2000/svg" viewBox="0 0 267.56 118.57">
  <path d="M158.6,24.84c-.66-2.86-1.13-5.29-1.79-7.66-1.62-5.8-.26-10.71,4.58-14.27a13.77,13.77,0,0,1,15.78-.81c11.83,6.77,23.47,13.68,35.2,20.53q25,14.63,50.09,29.26c6.79,4,6.8,10.91,0,14.88q-42.52,24.86-85.08,49.67c-9,5.28-20.1.25-21.09-9.77-.27-2.75.79-5.64,1.29-8.45.25-1.4.62-2.77,1-4.43H11.49C3.85,93.79,0,90,0,82.28V36c0-7.1,4-11.12,11.17-11.12ZM170.21,34H12.77c-3.61,0-3.61,0-3.61,3.5V80.9c0,3.76,0,3.76,3.83,3.76H170.15c-.24,1.15-.4,1.92-.58,2.69q-1.95,8.16-3.91,16.31c-.41,1.69-.6,3.32,1,4.57a5,5,0,0,0,5.41.63,16.22,16.22,0,0,0,1.47-.82l81.14-47.37c.65-.38,1.25-.83,2.15-1.43l-5.2-3q-39-22.79-78-45.6c-2.24-1.31-4.37-2-6.69-.39s-1.48,3.74-1,5.85C167.36,21.88,168.72,27.7,170.21,34Z"/>
</svg>
