<svg xmlns="http://www.w3.org/2000/svg" viewBox="0 0 160.53 159.85">
  <path d="M81.9,60.1a17.23,17.23,0,0,1,10.5,3.5c10.7,7.4,18.3,17.3,24.5,28.5a34.18,34.18,0,0,1,2.1,4.3c.9,2.2.4,4.1-1.4,5s-3.8.2-4.9-2a82.06,82.06,0,0,0-17-23.9A63.6,63.6,0,0,0,87,68.7c-4.3-2.7-9.1-2-13.3,1.4-4,3.2-5.8,8.2-4.3,12.3a12.31,12.31,0,0,0,2.8,4.3c7.5,7.1,14.4,14.5,19,23.9,7.2,14.8,7.5,30.2,3.8,45.9a3.36,3.36,0,0,1-3.8,2.9c-.2,0-.3-.1-.5-.1-2-.5-2.9-2.3-2.4-4.7,2.9-12.4,2.9-24.7-1.8-36.8A62.89,62.89,0,0,0,68.2,92.9,18.09,18.09,0,0,1,63.3,73,20.38,20.38,0,0,1,81.9,60.1Z"/>
  <path d="M83.5,15.3c13.7-.1,27.8,5.9,40.6,15.6,16.1,12.2,27.6,28,35.8,46.4a5.25,5.25,0,0,1,.6,3,3.13,3.13,0,0,1-3.1,2.8c-2,.2-3-1-3.8-2.7a117.26,117.26,0,0,0-17.2-27.8c-8.3-10.1-18-18.4-29.7-24.2-15.8-7.8-31.9-8.1-48.3-1.7-3.5,1.5-5.4,1.1-6.3-1.2s.3-3.8,3.6-5.2C63.8,16.9,72.2,15.3,83.5,15.3Z"/>
  <path d="M78.5,29.8c9.5.2,17.5,1.7,25.1,5.4a5.9,5.9,0,0,1,2.8,2.6c.3,1-.1,3.1-.9,3.5a5.37,5.37,0,0,1-4.3.3,48.51,48.51,0,0,0-24-4.7C60.4,38,49.1,47.1,42.3,62.1,36.1,76,38,89.4,46,102c.5.9,1.2,1.7,1.7,2.6,1.1,1.8.9,3.8-.7,4.9a3.47,3.47,0,0,1-4.8-.7c-.1-.1-.1-.2-.2-.3a59.09,59.09,0,0,1-8.5-16.8c-7.9-24.7,9.3-57,37.8-61.3C74.1,30.1,76.9,30,78.5,29.8Z"/>
  <path d="M78.2,44.1c12.1.4,20.8,4.2,28.2,10.9,15.8,14.2,26.1,32,32.1,52.2,2,6.9,3.2,14,4.5,21a4.25,4.25,0,0,1-1.4,3.4,3.92,3.92,0,0,1-3.5.1,5,5,0,0,1-1.8-3.1A121.08,121.08,0,0,0,121,83.8c-5.5-9.3-12-17.8-20.4-24.6-6.8-5.6-14.4-8.8-23.4-7.8A33.22,33.22,0,0,0,71,53c-2.7.8-4.5.3-5.2-1.7s.1-3.9,2.8-4.7C72.3,45.4,76.2,44.6,78.2,44.1Z"/>
  <path d="M75.6,142.2c-.1-16.9-5.8-29.1-17-38.7C45.4,92.1,44.8,72.2,52.6,60a8.34,8.34,0,0,1,1.6-2.1,3.14,3.14,0,0,1,4.4,0c1.7,1.4,1.7,3.2.4,4.9a26.63,26.63,0,0,0-4.4,17.8c.6,6.3,2.7,11.9,7.4,16.4,5.9,5.7,11.9,11.4,15.3,19.2,5.6,12.8,7.1,25.9,2.8,39.4a8.49,8.49,0,0,1-.9,2.2,3.49,3.49,0,0,1-6.4-2.8A33.1,33.1,0,0,0,75.6,142.2Z"/>
  <path d="M85.4,3.5c0,2.1-1.3,3.3-3.8,3.3a78,78,0,0,0-26.2,4.9C36.5,19.1,22.6,31.8,14,50.2c-.7,1.5-1.4,3.1-3.4,3.3-3,.3-4.9-2.5-3.3-5.4,3.4-6,6.5-12.4,10.8-17.7C34.2,10.5,55.4.6,81,0,84,.1,85.4,1.2,85.4,3.5Z"/>
  <path d="M112.7,140.4c-.2,3.6-.3,6.8-.5,10-.2,2.3-1.4,3.4-3.5,3.4s-3.1-1.3-3.2-3.6c-.3-7.8-.1-15.7-1-23.4-2.2-18.1-9.9-33.2-24.8-44.3-3-2.3-3.7-4.2-2.1-6.1s3.4-1.6,6.5.7c17,12.8,25.2,30.3,27.7,51C112.2,132.1,112.4,136.4,112.7,140.4Z"/>
  <path d="M118.2,47.3A13.07,13.07,0,0,1,121,49c16.1,16.9,27.9,36.3,33,59.3.6,2.7-.3,4.5-2.3,5s-3.8-.8-4.4-3.5c-4.7-20.9-15.3-38.6-29.6-54.2-.7-.8-1.7-1.4-2-2.3a6.15,6.15,0,0,1-.2-3.8C115.8,48.6,117.2,48.1,118.2,47.3Z"/>
  <path d="M53.3,140.8c-1.4,3.4-2.7,6.9-4.4,10.2-.9,1.8-2.8,2.2-4.6,1.1a3.28,3.28,0,0,1-1.4-4.4c0-.1.1-.1.1-.2a.35.35,0,0,1,.1-.2c4.4-6.3,2.2-11.8-2.2-16.9-4.1-4.7-8.5-9.1-12.5-13.9a49.08,49.08,0,0,1-10.6-22,12.25,12.25,0,0,1-.2-1.9,3.09,3.09,0,0,1,2.6-3.4h.1c1.9-.3,3.6.4,3.9,2.3,2.2,13.2,10.6,22.6,19.6,31.6,4.1,4.1,7.4,8.8,8.6,14.7a23.36,23.36,0,0,1,.4,2.6Z"/>
  <path d="M102,2.4c2.4.8,5.7,1.7,8.9,2.9a79.72,79.72,0,0,1,35.8,26.4c2.2,2.9,2.4,4.8.6,6.3s-3.9.8-6.1-2A73.8,73.8,0,0,0,101.6,9.6a12.09,12.09,0,0,1-1.8-.5,3.4,3.4,0,0,1-2.4-4C97.7,3.3,99.2,2.3,102,2.4Z"/>
  <path d="M0,79.8C1.1,72.9,2.2,66,3.4,59.1c.4-2.1,1.4-3.6,3.9-3.4s3.6,2.1,2.9,4.9A72.79,72.79,0,0,0,7.6,82.4a73.9,73.9,0,0,0,4.2,21.8,5.58,5.58,0,0,1-.4,4.2c-1.5,2.3-4.9,1.4-5.9-1.4A72.39,72.39,0,0,1,1,86.5C.8,84.3,1,82.2,1,80Z"/>
  <path d="M16.8,72.8A66.52,66.52,0,0,1,30.9,39a98.67,98.67,0,0,1,7-7.5c1.7-1.7,4-1.7,5.3-.3s1.2,3.7-.7,5.4A60.13,60.13,0,0,0,23.8,72.9c-.4,2.7-1.9,4.1-4,3.8A3.44,3.44,0,0,1,16.8,72.8Z"/>
  <path d="M67.3,139.1a35.49,35.49,0,0,1-3.1,14.4c-1.2,2.6-3,3.5-5.1,2.5s-2.4-2.7-1.3-5.3c4.6-11.3,3.5-21.5-5.5-30.4-1.8-1.8-1.9-3.8-.5-5.3s3.5-1.5,5.3.3A31.26,31.26,0,0,1,67.3,139.1Z"/>
  <path d="M15.9,116.1c1.2,1,2.4,1.6,3,2.5A77.83,77.83,0,0,0,35.8,137c1.9,1.5,2.2,3.6.9,5.2s-3.3,1.7-5.3.2a75.89,75.89,0,0,1-18.2-20.1,5.07,5.07,0,0,1-.2-4C13.2,117.4,14.6,116.9,15.9,116.1Z"/>
  <path d="M128.1,135.4c0,2.2.1,4.5,0,6.7a3.4,3.4,0,1,1-6.8,0v-.4A92.6,92.6,0,0,0,119,116c-.5-2.3.5-4,2.5-4.5a3.3,3.3,0,0,1,4.1,2.4c0,.2.1.3.1.5,1.2,6.9,2.2,13.8,3.3,20.8Z"/>
</svg>
